<svg xmlns="http://www.w3.org/2000/svg" xmlns:xlink="http://www.w3.org/1999/xlink" width="400" zoomAndPan="magnify" viewBox="0 0 300 299.999988" height="400" preserveAspectRatio="xMidYMid meet" version="1.0"><defs><clipPath id="a55ef2063b"><path d="M 5.546875 14.9375 L 294.296875 14.9375 L 294.296875 284.9375 L 5.546875 284.9375 Z M 5.546875 14.9375 " clip-rule="nonzero"/></clipPath></defs><g clip-path="url(#a55ef2063b)"><path fill="#d9b752" d="M 47.515625 80.011719 C 47.792969 76.15625 47.011719 71.179688 48.09375 67.136719 C 51.351562 54.929688 61.519531 52.660156 73.667969 52.816406 C 90.535156 53.027344 89.902344 53.03125 90.546875 52.605469 C 117.851562 34.515625 135.324219 22.542969 143.28125 17.167969 C 148.578125 13.585938 153.765625 14.527344 158.96875 18.492188 C 160.75 19.851562 177.601562 31.121094 209.378906 52.507812 C 210.300781 53.128906 209.410156 52.925781 231.355469 52.898438 C 241.96875 52.886719 248.777344 57.878906 251.796875 67.835938 C 252.054688 68.683594 252.175781 72.222656 252.289062 78.425781 C 252.320312 80.347656 254.824219 82.496094 256.367188 83.535156 C 275.960938 96.78125 287.085938 104.496094 289.789062 106.59375 C 293.730469 109.652344 294.210938 113.089844 294.1875 118.484375 C 293.472656 272.933594 295.191406 271.335938 292.628906 276.304688 C 289.09375 283.160156 282.101562 285.078125 274.644531 285.050781 C 243.285156 284.945312 161.988281 284.886719 30.773438 284.992188 C 18.917969 285 10.664062 285.15625 6.734375 274.539062 C 5.421875 271 6.050781 272.871094 5.808594 114.148438 C 5.800781 107.492188 14.640625 104.25 46.59375 81.65625 C 47.132812 81.273438 47.464844 80.675781 47.515625 80.011719 Z M 102.632812 52.3125 C 102.300781 52.53125 102.460938 53.046875 102.863281 53.046875 L 197.15625 53.046875 C 197.5625 53.046875 197.722656 52.53125 197.390625 52.3125 C 149.933594 20.695312 150.148438 20.683594 149.789062 20.914062 Z M 152.859375 199.59375 C 179.179688 181.863281 209.875 160.832031 245.296875 137.046875 C 245.738281 136.75 246.007812 136.246094 246.011719 135.707031 C 246.027344 116.949219 246.035156 97.40625 245.949219 77.050781 C 245.917969 69.375 245.539062 65.191406 239.597656 61.449219 C 237.765625 60.296875 234.167969 59.703125 228.824219 59.695312 C 60.144531 59.453125 64.117188 58.859375 60.15625 61.351562 C 54.214844 65.09375 53.828125 69.277344 53.792969 76.953125 C 53.695312 97.296875 53.652344 116.851562 53.65625 135.597656 C 53.65625 136.136719 53.925781 136.640625 54.371094 136.945312 C 89.5625 161.089844 120.429688 181.847656 146.746094 199.59375 C 149.117188 201.195312 150.488281 201.195312 152.863281 199.59375 Z M 253.085938 89.199219 C 252.800781 89.003906 252.371094 89.210938 252.371094 89.554688 L 252.371094 131.53125 C 252.371094 131.875 252.726562 132.082031 253.011719 131.886719 L 283.363281 110.953125 C 283.621094 110.78125 283.621094 110.414062 283.363281 110.242188 Z M 45.917969 131.113281 C 46.519531 131.515625 47.328125 131.101562 47.328125 130.375 L 47.328125 91.019531 C 47.328125 90.292969 46.519531 89.875 45.917969 90.28125 L 17.269531 109.960938 C 16.753906 110.316406 16.753906 111.078125 17.269531 111.433594 Z M 116.625 187.839844 C 116.855469 187.640625 116.832031 187.296875 116.585938 187.125 C 7.417969 111.71875 12.683594 115.925781 12.683594 117 L 12.683594 266.714844 C 12.6875 270.375 13.132812 272.730469 13.953125 273.789062 C 14.539062 274.542969 7.804688 279.628906 116.625 187.839844 Z M 286.066406 273.335938 C 286.890625 272.289062 287.28125 269.929688 287.28125 266.28125 C 287.398438 107.191406 287.476562 116.300781 286.707031 116.8125 C 176.238281 190.382812 183.011719 187.167969 183.730469 187.753906 C 293.5625 277.421875 285.476562 274.082031 286.066406 273.335938 Z M 143.855469 205.464844 C 137.175781 200.660156 130.523438 196.113281 123.90625 191.808594 C 123.304688 191.414062 122.507812 191.464844 121.953125 191.929688 C 17.71875 279.984375 18.84375 278.144531 21.9375 278.144531 L 279.320312 278.144531 C 280.28125 277.644531 285.882812 282.707031 178.371094 191.917969 C 177.820312 191.449219 177.023438 191.402344 176.417969 191.796875 C 169.804688 196.105469 163.152344 200.652344 156.472656 205.464844 C 153.320312 207.734375 147.113281 207.8125 143.855469 205.464844 Z M 143.855469 205.464844 " fill-opacity="1" fill-rule="nonzero"/></g><path fill="#d9b752" d="M 176.617188 89.863281 C 190.953125 92.367188 199.257812 104.296875 196.824219 118.507812 C 193.21875 139.5625 172.425781 154.566406 155.527344 167.238281 C 151.324219 170.390625 148.375 170.386719 144.1875 167.214844 C 127.355469 154.460938 106.574219 139.453125 103.027344 118.386719 C 100.628906 104.160156 108.96875 92.257812 123.304688 89.789062 C 140.84375 86.769531 149.125 99.25 149.863281 99.25 C 151.039062 99.25 158.867188 86.761719 176.617188 89.863281 Z M 150.34375 162.410156 C 163.925781 153.121094 176.988281 143.175781 186.027344 129.097656 C 190.957031 121.421875 193.015625 108.191406 185.683594 101.496094 C 174.371094 91.167969 155.15625 95.066406 152.640625 111.386719 C 152.574219 111.804688 152.351562 112.191406 152.027344 112.464844 C 149.902344 114.257812 147.386719 112.84375 147.164062 111.398438 C 144.609375 95.085938 125.335938 91.253906 114.070312 101.632812 C 106.765625 108.355469 108.878906 121.585938 113.835938 129.246094 C 122.925781 143.292969 136.144531 153.015625 149.65625 162.414062 C 149.789062 162.523438 150.164062 162.535156 150.34375 162.414062 Z M 150.34375 162.410156 " fill-opacity="1" fill-rule="nonzero"/></svg>