<svg xmlns="http://www.w3.org/2000/svg" xmlns:xlink="http://www.w3.org/1999/xlink" width="400" zoomAndPan="magnify" viewBox="0 0 300 299.999988" height="400" preserveAspectRatio="xMidYMid meet" version="1.0"><defs><clipPath id="bf0983e462"><path d="M 20.25 4.210938 L 279.75 4.210938 L 279.75 295.960938 L 20.25 295.960938 Z M 20.25 4.210938 " clip-rule="nonzero"/></clipPath></defs><g clip-path="url(#bf0983e462)"><path fill="#d9b752" d="M 22.859375 295.5 L 277.136719 295.5 C 277.492188 295.5 277.835938 295.433594 278.164062 295.296875 C 278.492188 295.160156 278.78125 294.96875 279.035156 294.714844 C 279.285156 294.464844 279.480469 294.175781 279.613281 293.847656 C 279.75 293.519531 279.820312 293.175781 279.820312 292.820312 L 279.820312 208.074219 C 279.816406 207.550781 279.675781 207.066406 279.390625 206.625 C 279.105469 206.183594 278.722656 205.851562 278.242188 205.636719 L 222.816406 180.570312 L 222.816406 147.265625 C 224.132812 147.652344 225.480469 147.84375 226.855469 147.851562 C 227.375 147.847656 227.890625 147.820312 228.40625 147.765625 C 228.921875 147.707031 229.429688 147.625 229.9375 147.519531 C 230.445312 147.410156 230.941406 147.273438 231.433594 147.113281 C 231.925781 146.953125 232.410156 146.765625 232.882812 146.554688 C 233.355469 146.34375 233.8125 146.105469 234.261719 145.847656 C 234.710938 145.585938 235.144531 145.304688 235.5625 145 C 235.980469 144.695312 236.378906 144.367188 236.765625 144.019531 C 237.148438 143.675781 237.515625 143.308594 237.859375 142.921875 C 238.207031 142.539062 238.53125 142.136719 238.832031 141.714844 C 239.136719 141.296875 239.417969 140.863281 239.675781 140.414062 C 239.933594 139.964844 240.167969 139.503906 240.378906 139.03125 C 240.589844 138.558594 240.773438 138.074219 240.933594 137.582031 C 241.09375 137.089844 241.226562 136.589844 241.335938 136.082031 C 241.441406 135.578125 241.523438 135.066406 241.574219 134.550781 C 241.628906 134.035156 241.65625 133.519531 241.65625 133.003906 C 241.65625 132.484375 241.628906 131.96875 241.574219 131.453125 C 241.378906 129.503906 240.8125 127.667969 239.875 125.945312 C 238.9375 124.226562 237.703125 122.753906 236.171875 121.53125 L 160.003906 60.054688 L 160.003906 41.882812 L 170.507812 41.882812 C 171.191406 41.898438 171.875 41.847656 172.550781 41.726562 C 173.226562 41.605469 173.882812 41.421875 174.519531 41.167969 C 175.160156 40.917969 175.765625 40.605469 176.339844 40.230469 C 176.917969 39.859375 177.449219 39.433594 177.941406 38.953125 C 178.433594 38.472656 178.871094 37.949219 179.257812 37.382812 C 179.644531 36.816406 179.96875 36.214844 180.234375 35.582031 C 180.5 34.949219 180.703125 34.296875 180.839844 33.625 C 180.972656 32.953125 181.042969 32.273438 181.042969 31.585938 C 181.042969 30.902344 180.972656 30.222656 180.839844 29.546875 C 180.703125 28.875 180.5 28.222656 180.234375 27.589844 C 179.96875 26.957031 179.644531 26.359375 179.257812 25.792969 C 178.871094 25.222656 178.433594 24.699219 177.941406 24.222656 C 177.449219 23.742188 176.917969 23.316406 176.339844 22.941406 C 175.765625 22.570312 175.160156 22.257812 174.519531 22.003906 C 173.882812 21.753906 173.226562 21.566406 172.550781 21.445312 C 171.875 21.328125 171.191406 21.273438 170.507812 21.289062 L 160.003906 21.289062 L 160.003906 15.929688 C 160.019531 15.203125 159.964844 14.484375 159.835938 13.769531 C 159.710938 13.058594 159.511719 12.363281 159.246094 11.691406 C 158.980469 11.015625 158.648438 10.375 158.253906 9.765625 C 157.859375 9.15625 157.410156 8.59375 156.902344 8.078125 C 156.398438 7.558594 155.84375 7.09375 155.246094 6.6875 C 154.644531 6.28125 154.011719 5.9375 153.34375 5.65625 C 152.675781 5.375 151.984375 5.160156 151.277344 5.019531 C 150.566406 4.875 149.847656 4.804688 149.121094 4.804688 C 148.398438 4.804688 147.679688 4.875 146.96875 5.019531 C 146.257812 5.160156 145.570312 5.375 144.902344 5.65625 C 144.234375 5.9375 143.601562 6.28125 143 6.6875 C 142.402344 7.09375 141.847656 7.558594 141.339844 8.078125 C 140.835938 8.59375 140.382812 9.15625 139.988281 9.765625 C 139.59375 10.375 139.265625 11.015625 139 11.691406 C 138.734375 12.363281 138.535156 13.058594 138.410156 13.769531 C 138.28125 14.484375 138.226562 15.203125 138.242188 15.929688 L 138.242188 21.289062 L 127.742188 21.289062 C 127.058594 21.273438 126.375 21.328125 125.699219 21.445312 C 125.027344 21.566406 124.367188 21.753906 123.730469 22.003906 C 123.09375 22.257812 122.484375 22.570312 121.910156 22.941406 C 121.332031 23.316406 120.800781 23.742188 120.308594 24.222656 C 119.816406 24.699219 119.378906 25.222656 118.992188 25.792969 C 118.609375 26.359375 118.28125 26.957031 118.015625 27.589844 C 117.75 28.222656 117.546875 28.875 117.414062 29.546875 C 117.277344 30.222656 117.207031 30.902344 117.207031 31.585938 C 117.207031 32.273438 117.277344 32.953125 117.414062 33.625 C 117.546875 34.296875 117.75 34.949219 118.015625 35.582031 C 118.28125 36.214844 118.609375 36.816406 118.992188 37.382812 C 119.378906 37.949219 119.816406 38.472656 120.308594 38.953125 C 120.800781 39.433594 121.332031 39.859375 121.910156 40.230469 C 122.484375 40.605469 123.09375 40.917969 123.730469 41.167969 C 124.367188 41.421875 125.027344 41.605469 125.699219 41.726562 C 126.375 41.847656 127.058594 41.898438 127.742188 41.882812 L 138.242188 41.882812 L 138.242188 61.453125 L 63.847656 121.503906 C 62.3125 122.726562 61.078125 124.199219 60.136719 125.921875 C 59.195312 127.640625 58.625 129.480469 58.429688 131.433594 C 58.222656 133.386719 58.394531 135.304688 58.953125 137.1875 C 59.511719 139.070312 60.410156 140.773438 61.644531 142.300781 C 62.578125 143.398438 63.644531 144.347656 64.847656 145.144531 C 66.050781 145.9375 67.339844 146.550781 68.71875 146.976562 C 70.09375 147.402344 71.503906 147.628906 72.945312 147.65625 C 74.386719 147.679688 75.804688 147.503906 77.195312 147.125 L 77.195312 180.550781 L 21.753906 205.636719 C 21.277344 205.851562 20.894531 206.183594 20.609375 206.625 C 20.324219 207.066406 20.179688 207.550781 20.179688 208.074219 L 20.179688 292.820312 C 20.179688 293.175781 20.246094 293.519531 20.382812 293.847656 C 20.519531 294.175781 20.714844 294.464844 20.964844 294.714844 C 21.214844 294.96875 21.507812 295.160156 21.835938 295.296875 C 22.164062 295.433594 22.503906 295.5 22.859375 295.5 Z M 196.332031 267.417969 L 217.453125 267.417969 L 217.453125 290.140625 L 196.332031 290.140625 Z M 217.453125 182.304688 L 217.453125 262.054688 L 196.332031 262.054688 L 196.332031 211.007812 C 196.332031 210.597656 196.242188 210.203125 196.0625 209.832031 C 195.882812 209.464844 195.628906 209.152344 195.304688 208.894531 L 150.804688 174.046875 C 150.566406 173.859375 150.308594 173.71875 150.023438 173.621094 C 149.738281 173.523438 149.445312 173.472656 149.148438 173.472656 C 148.847656 173.472656 148.554688 173.523438 148.269531 173.621094 C 147.984375 173.71875 147.726562 173.859375 147.488281 174.046875 L 102.988281 208.894531 C 102.664062 209.152344 102.410156 209.464844 102.230469 209.832031 C 102.050781 210.203125 101.960938 210.597656 101.960938 211.007812 L 101.960938 262.054688 L 82.546875 262.054688 L 82.546875 144.414062 L 150 90.007812 L 217.453125 144.457031 Z M 82.546875 267.417969 L 101.917969 267.417969 L 101.917969 290.140625 L 82.546875 290.140625 Z M 128.65625 290.140625 L 128.65625 247.785156 C 128.65625 247.113281 128.6875 246.445312 128.753906 245.777344 C 128.820312 245.113281 128.917969 244.449219 129.046875 243.792969 C 129.179688 243.136719 129.339844 242.484375 129.535156 241.84375 C 129.730469 241.203125 129.957031 240.574219 130.210938 239.953125 C 130.46875 239.335938 130.753906 238.730469 131.070312 238.140625 C 131.386719 237.546875 131.730469 236.972656 132.101562 236.417969 C 132.476562 235.859375 132.875 235.324219 133.300781 234.804688 C 133.722656 234.285156 134.171875 233.789062 134.648438 233.316406 C 135.121094 232.84375 135.617188 232.394531 136.136719 231.96875 C 136.652344 231.542969 137.191406 231.144531 137.746094 230.773438 C 138.304688 230.398438 138.878906 230.054688 139.46875 229.738281 C 140.0625 229.425781 140.664062 229.136719 141.285156 228.882812 C 141.902344 228.625 142.535156 228.398438 143.175781 228.207031 C 143.816406 228.011719 144.464844 227.847656 145.121094 227.71875 C 145.78125 227.585938 146.441406 227.488281 147.109375 227.421875 C 147.777344 227.355469 148.445312 227.324219 149.113281 227.324219 C 149.785156 227.324219 150.453125 227.355469 151.121094 227.421875 C 151.785156 227.488281 152.449219 227.585938 153.105469 227.71875 C 153.761719 227.847656 154.414062 228.011719 155.054688 228.207031 C 155.695312 228.398438 156.324219 228.625 156.945312 228.882812 C 157.5625 229.136719 158.167969 229.425781 158.757812 229.738281 C 159.351562 230.054688 159.925781 230.398438 160.480469 230.773438 C 161.039062 231.144531 161.574219 231.542969 162.09375 231.96875 C 162.613281 232.394531 163.109375 232.84375 163.582031 233.316406 C 164.054688 233.789062 164.503906 234.285156 164.929688 234.804688 C 165.355469 235.324219 165.753906 235.859375 166.125 236.417969 C 166.5 236.972656 166.84375 237.546875 167.160156 238.140625 C 167.472656 238.730469 167.761719 239.335938 168.015625 239.953125 C 168.273438 240.574219 168.5 241.203125 168.691406 241.84375 C 168.886719 242.484375 169.050781 243.136719 169.179688 243.792969 C 169.3125 244.449219 169.410156 245.113281 169.476562 245.777344 C 169.542969 246.445312 169.574219 247.113281 169.574219 247.785156 L 169.574219 290.140625 Z M 174.9375 290.140625 L 174.9375 247.785156 C 174.9375 246.9375 174.894531 246.09375 174.8125 245.253906 C 174.730469 244.410156 174.605469 243.574219 174.441406 242.746094 C 174.273438 241.917969 174.070312 241.097656 173.824219 240.289062 C 173.578125 239.480469 173.292969 238.683594 172.96875 237.902344 C 172.648438 237.121094 172.285156 236.359375 171.886719 235.613281 C 171.488281 234.867188 171.054688 234.140625 170.585938 233.4375 C 170.113281 232.734375 169.609375 232.058594 169.074219 231.402344 C 168.539062 230.75 167.972656 230.125 167.371094 229.527344 C 166.773438 228.925781 166.148438 228.359375 165.496094 227.824219 C 164.839844 227.289062 164.164062 226.785156 163.460938 226.3125 C 162.757812 225.84375 162.03125 225.410156 161.285156 225.011719 C 160.539062 224.613281 159.777344 224.25 158.996094 223.929688 C 158.214844 223.605469 157.417969 223.320312 156.609375 223.074219 C 155.800781 222.828125 154.980469 222.625 154.152344 222.457031 C 153.324219 222.292969 152.488281 222.167969 151.644531 222.085938 C 150.804688 222.003906 149.960938 221.960938 149.113281 221.960938 C 148.269531 221.960938 147.425781 222.003906 146.582031 222.085938 C 145.742188 222.167969 144.90625 222.292969 144.078125 222.457031 C 143.246094 222.625 142.429688 222.828125 141.617188 223.074219 C 140.808594 223.320312 140.015625 223.605469 139.234375 223.929688 C 138.453125 224.25 137.6875 224.613281 136.941406 225.011719 C 136.195312 225.410156 135.472656 225.84375 134.769531 226.3125 C 134.066406 226.785156 133.386719 227.289062 132.734375 227.824219 C 132.078125 228.359375 131.453125 228.925781 130.855469 229.527344 C 130.257812 230.125 129.691406 230.75 129.15625 231.402344 C 128.617188 232.058594 128.113281 232.734375 127.644531 233.4375 C 127.175781 234.140625 126.742188 234.867188 126.34375 235.613281 C 125.945312 236.359375 125.582031 237.121094 125.257812 237.902344 C 124.933594 238.683594 124.652344 239.480469 124.40625 240.289062 C 124.160156 241.097656 123.953125 241.917969 123.789062 242.746094 C 123.625 243.574219 123.5 244.410156 123.417969 245.253906 C 123.335938 246.09375 123.292969 246.9375 123.292969 247.785156 L 123.292969 290.140625 L 107.277344 290.140625 L 107.277344 212.3125 L 149.125 179.550781 L 190.972656 212.3125 L 190.972656 290.140625 Z M 274.445312 209.808594 L 274.445312 290.140625 L 222.816406 290.140625 L 222.816406 186.457031 Z M 127.742188 36.523438 C 127.414062 36.53125 127.082031 36.511719 126.757812 36.457031 C 126.429688 36.398438 126.113281 36.3125 125.804688 36.195312 C 125.496094 36.074219 125.203125 35.925781 124.921875 35.75 C 124.644531 35.570312 124.386719 35.367188 124.148438 35.136719 C 123.910156 34.90625 123.695312 34.652344 123.507812 34.378906 C 123.320312 34.109375 123.164062 33.820312 123.035156 33.515625 C 122.90625 33.210938 122.808594 32.894531 122.742188 32.570312 C 122.675781 32.246094 122.640625 31.917969 122.640625 31.585938 C 122.640625 31.253906 122.675781 30.929688 122.742188 30.601562 C 122.808594 30.277344 122.90625 29.964844 123.035156 29.660156 C 123.164062 29.355469 123.320312 29.066406 123.507812 28.792969 C 123.695312 28.519531 123.910156 28.269531 124.148438 28.039062 C 124.386719 27.808594 124.644531 27.601562 124.921875 27.425781 C 125.203125 27.246094 125.496094 27.097656 125.804688 26.980469 C 126.113281 26.859375 126.429688 26.773438 126.757812 26.71875 C 127.082031 26.664062 127.414062 26.640625 127.742188 26.652344 L 140.921875 26.652344 C 141.277344 26.652344 141.621094 26.582031 141.949219 26.449219 C 142.277344 26.3125 142.566406 26.117188 142.816406 25.867188 C 143.070312 25.613281 143.261719 25.324219 143.398438 24.996094 C 143.535156 24.667969 143.601562 24.324219 143.601562 23.96875 L 143.601562 15.929688 C 143.589844 15.558594 143.617188 15.191406 143.679688 14.828125 C 143.742188 14.460938 143.839844 14.109375 143.972656 13.761719 C 144.105469 13.417969 144.273438 13.089844 144.472656 12.777344 C 144.671875 12.464844 144.898438 12.179688 145.15625 11.914062 C 145.414062 11.648438 145.695312 11.410156 146 11.199219 C 146.304688 10.992188 146.628906 10.816406 146.96875 10.671875 C 147.308594 10.527344 147.660156 10.417969 148.023438 10.34375 C 148.386719 10.269531 148.753906 10.234375 149.121094 10.234375 C 149.492188 10.234375 149.859375 10.269531 150.222656 10.34375 C 150.582031 10.417969 150.933594 10.527344 151.277344 10.671875 C 151.617188 10.816406 151.9375 10.992188 152.242188 11.199219 C 152.550781 11.410156 152.832031 11.648438 153.085938 11.914062 C 153.34375 12.179688 153.574219 12.464844 153.773438 12.777344 C 153.972656 13.089844 154.140625 13.417969 154.273438 13.761719 C 154.40625 14.109375 154.503906 14.460938 154.566406 14.828125 C 154.628906 15.191406 154.652344 15.558594 154.640625 15.929688 L 154.640625 23.96875 C 154.640625 24.324219 154.710938 24.667969 154.847656 24.996094 C 154.980469 25.324219 155.175781 25.613281 155.425781 25.867188 C 155.679688 26.117188 155.96875 26.3125 156.296875 26.449219 C 156.625 26.582031 156.96875 26.652344 157.324219 26.652344 L 170.507812 26.652344 C 170.839844 26.640625 171.167969 26.664062 171.492188 26.71875 C 171.820312 26.773438 172.136719 26.859375 172.445312 26.980469 C 172.753906 27.097656 173.050781 27.246094 173.328125 27.425781 C 173.605469 27.601562 173.867188 27.808594 174.105469 28.039062 C 174.339844 28.269531 174.554688 28.519531 174.742188 28.792969 C 174.929688 29.066406 175.085938 29.355469 175.214844 29.660156 C 175.34375 29.964844 175.441406 30.277344 175.507812 30.601562 C 175.574219 30.929688 175.609375 31.253906 175.609375 31.585938 C 175.609375 31.917969 175.574219 32.246094 175.507812 32.570312 C 175.441406 32.894531 175.34375 33.210938 175.214844 33.515625 C 175.085938 33.820312 174.929688 34.109375 174.742188 34.378906 C 174.554688 34.652344 174.339844 34.90625 174.105469 35.136719 C 173.867188 35.367188 173.605469 35.570312 173.328125 35.75 C 173.050781 35.925781 172.753906 36.074219 172.445312 36.195312 C 172.136719 36.3125 171.820312 36.398438 171.492188 36.457031 C 171.167969 36.511719 170.839844 36.53125 170.507812 36.523438 L 157.324219 36.523438 C 156.96875 36.523438 156.625 36.589844 156.296875 36.726562 C 155.96875 36.863281 155.679688 37.054688 155.425781 37.308594 C 155.175781 37.558594 154.980469 37.847656 154.847656 38.175781 C 154.710938 38.503906 154.640625 38.847656 154.640625 39.203125 L 154.640625 61.304688 C 154.640625 61.328125 154.617188 61.351562 154.617188 61.378906 C 154.617188 61.40625 154.640625 61.4375 154.640625 61.476562 L 154.640625 71.867188 C 154.652344 72.234375 154.628906 72.601562 154.566406 72.96875 C 154.503906 73.332031 154.40625 73.6875 154.273438 74.03125 C 154.140625 74.375 153.972656 74.703125 153.773438 75.015625 C 153.574219 75.328125 153.34375 75.617188 153.085938 75.882812 C 152.832031 76.148438 152.550781 76.382812 152.242188 76.59375 C 151.9375 76.800781 151.617188 76.980469 151.277344 77.121094 C 150.933594 77.265625 150.582031 77.375 150.222656 77.449219 C 149.859375 77.523438 149.492188 77.558594 149.121094 77.558594 C 148.753906 77.558594 148.386719 77.523438 148.023438 77.449219 C 147.660156 77.375 147.308594 77.265625 146.96875 77.121094 C 146.628906 76.980469 146.304688 76.800781 146 76.59375 C 145.695312 76.382812 145.414062 76.148438 145.15625 75.882812 C 144.898438 75.617188 144.671875 75.328125 144.472656 75.015625 C 144.273438 74.703125 144.105469 74.375 143.972656 74.03125 C 143.839844 73.6875 143.742188 73.332031 143.679688 72.96875 C 143.617188 72.601562 143.589844 72.234375 143.601562 71.867188 L 143.601562 63.050781 C 143.601562 62.96875 143.601562 62.886719 143.601562 62.804688 L 143.601562 39.214844 C 143.601562 38.859375 143.535156 38.515625 143.398438 38.1875 C 143.261719 37.859375 143.070312 37.570312 142.816406 37.316406 C 142.566406 37.066406 142.277344 36.871094 141.949219 36.738281 C 141.621094 36.601562 141.277344 36.53125 140.921875 36.53125 Z M 65.824219 138.949219 C 65.035156 137.976562 64.46875 136.886719 64.113281 135.6875 C 63.761719 134.484375 63.652344 133.261719 63.785156 132.015625 C 63.910156 130.773438 64.273438 129.605469 64.875 128.511719 C 65.472656 127.414062 66.261719 126.476562 67.238281 125.699219 L 138.269531 68.332031 L 138.269531 71.847656 C 138.25 72.574219 138.308594 73.292969 138.433594 74.007812 C 138.5625 74.71875 138.757812 75.414062 139.027344 76.089844 C 139.292969 76.761719 139.621094 77.402344 140.015625 78.011719 C 140.410156 78.621094 140.863281 79.183594 141.367188 79.699219 C 141.875 80.21875 142.429688 80.683594 143.027344 81.089844 C 143.625 81.496094 144.261719 81.84375 144.929688 82.125 C 145.597656 82.402344 146.285156 82.617188 146.996094 82.761719 C 147.707031 82.902344 148.425781 82.976562 149.148438 82.976562 C 149.875 82.976562 150.59375 82.902344 151.300781 82.761719 C 152.011719 82.617188 152.703125 82.402344 153.371094 82.125 C 154.039062 81.84375 154.671875 81.496094 155.269531 81.089844 C 155.871094 80.683594 156.421875 80.21875 156.929688 79.699219 C 157.4375 79.183594 157.886719 78.621094 158.28125 78.011719 C 158.675781 77.402344 159.007812 76.761719 159.273438 76.089844 C 159.539062 75.414062 159.734375 74.71875 159.863281 74.007812 C 159.992188 73.292969 160.046875 72.574219 160.03125 71.847656 L 160.03125 66.949219 L 232.804688 125.707031 C 233.777344 126.484375 234.5625 127.421875 235.160156 128.515625 C 235.757812 129.609375 236.117188 130.777344 236.246094 132.015625 C 236.34375 132.90625 236.3125 133.792969 236.15625 134.671875 C 236 135.554688 235.726562 136.394531 235.328125 137.195312 C 234.933594 138 234.433594 138.730469 233.828125 139.390625 C 233.226562 140.046875 232.539062 140.609375 231.777344 141.074219 C 231.011719 141.539062 230.195312 141.886719 229.332031 142.117188 C 228.46875 142.347656 227.589844 142.457031 226.695312 142.4375 C 225.800781 142.417969 224.925781 142.273438 224.074219 142.003906 C 223.222656 141.738281 222.421875 141.355469 221.679688 140.859375 C 221.4375 140.671875 221.183594 140.503906 220.917969 140.355469 L 151.65625 84.476562 C 151.417969 84.285156 151.152344 84.136719 150.863281 84.035156 C 150.578125 83.933594 150.277344 83.882812 149.972656 83.882812 C 149.664062 83.882812 149.367188 83.933594 149.078125 84.035156 C 148.789062 84.136719 148.527344 84.285156 148.289062 84.476562 L 78.847656 140.519531 L 78.367188 140.824219 C 77.886719 141.148438 77.375 141.425781 76.839844 141.652344 C 76.308594 141.882812 75.757812 142.058594 75.1875 142.1875 C 74.621094 142.3125 74.046875 142.386719 73.46875 142.40625 C 72.886719 142.429688 72.308594 142.394531 71.734375 142.308594 C 71.160156 142.222656 70.597656 142.085938 70.046875 141.898438 C 69.496094 141.707031 68.96875 141.46875 68.464844 141.179688 C 67.960938 140.894531 67.484375 140.5625 67.039062 140.1875 C 66.597656 139.8125 66.191406 139.398438 65.824219 138.949219 Z M 25.542969 209.808594 L 77.183594 186.457031 L 77.183594 290.140625 L 25.542969 290.140625 Z M 25.542969 209.808594 " fill-opacity="1" fill-rule="nonzero"/></g><path fill="#d9b752" d="M 237.359375 271.4375 L 260.011719 271.4375 C 260.367188 271.4375 260.710938 271.371094 261.039062 271.234375 C 261.367188 271.097656 261.65625 270.90625 261.910156 270.652344 C 262.160156 270.402344 262.355469 270.113281 262.488281 269.785156 C 262.625 269.457031 262.695312 269.113281 262.695312 268.757812 L 262.695312 235.972656 C 262.710938 235.042969 262.636719 234.117188 262.472656 233.199219 C 262.304688 232.285156 262.050781 231.394531 261.707031 230.527344 C 261.363281 229.660156 260.9375 228.839844 260.429688 228.058594 C 259.921875 227.277344 259.34375 226.554688 258.691406 225.890625 C 258.039062 225.222656 257.328125 224.628906 256.554688 224.105469 C 255.785156 223.582031 254.96875 223.140625 254.113281 222.78125 C 253.253906 222.421875 252.367188 222.148438 251.453125 221.964844 C 250.539062 221.78125 249.617188 221.6875 248.6875 221.6875 C 247.753906 221.6875 246.832031 221.78125 245.921875 221.964844 C 245.007812 222.148438 244.121094 222.421875 243.261719 222.78125 C 242.402344 223.140625 241.589844 223.582031 240.816406 224.105469 C 240.046875 224.628906 239.335938 225.222656 238.683594 225.890625 C 238.03125 226.554688 237.453125 227.277344 236.945312 228.058594 C 236.4375 228.839844 236.011719 229.660156 235.667969 230.527344 C 235.324219 231.394531 235.066406 232.285156 234.902344 233.199219 C 234.734375 234.117188 234.660156 235.042969 234.679688 235.972656 L 234.679688 268.757812 C 234.679688 269.113281 234.746094 269.457031 234.882812 269.785156 C 235.019531 270.113281 235.214844 270.402344 235.464844 270.652344 C 235.714844 270.90625 236.007812 271.097656 236.335938 271.234375 C 236.664062 271.371094 237.003906 271.4375 237.359375 271.4375 Z M 240.042969 235.949219 C 240.027344 235.375 240.070312 234.800781 240.171875 234.234375 C 240.269531 233.664062 240.425781 233.113281 240.636719 232.574219 C 240.847656 232.039062 241.109375 231.527344 241.421875 231.042969 C 241.734375 230.558594 242.09375 230.109375 242.496094 229.695312 C 242.898438 229.285156 243.339844 228.914062 243.816406 228.589844 C 244.292969 228.265625 244.796875 227.992188 245.328125 227.765625 C 245.859375 227.542969 246.40625 227.371094 246.972656 227.257812 C 247.539062 227.144531 248.109375 227.085938 248.6875 227.085938 C 249.265625 227.085938 249.835938 227.144531 250.402344 227.257812 C 250.964844 227.371094 251.515625 227.542969 252.046875 227.765625 C 252.578125 227.992188 253.082031 228.265625 253.558594 228.589844 C 254.035156 228.914062 254.476562 229.285156 254.878906 229.695312 C 255.28125 230.109375 255.636719 230.558594 255.953125 231.042969 C 256.265625 231.527344 256.527344 232.039062 256.738281 232.574219 C 256.949219 233.113281 257.105469 233.664062 257.203125 234.234375 C 257.304688 234.800781 257.347656 235.375 257.332031 235.949219 L 257.332031 266.078125 L 240.042969 266.078125 Z M 240.042969 235.949219 " fill-opacity="1" fill-rule="nonzero"/><path fill="#d9b752" d="M 52.78125 221.960938 C 51.863281 221.964844 50.953125 222.054688 50.050781 222.234375 C 49.148438 222.414062 48.273438 222.683594 47.425781 223.035156 C 46.578125 223.386719 45.769531 223.820312 45.007812 224.332031 C 44.242188 224.839844 43.535156 225.421875 42.886719 226.074219 C 42.234375 226.722656 41.65625 227.429688 41.144531 228.195312 C 40.632812 228.957031 40.203125 229.765625 39.847656 230.613281 C 39.496094 231.464844 39.230469 232.339844 39.050781 233.242188 C 38.871094 234.140625 38.78125 235.054688 38.777344 235.972656 L 38.777344 268.757812 C 38.777344 269.113281 38.847656 269.457031 38.984375 269.785156 C 39.117188 270.113281 39.3125 270.402344 39.5625 270.652344 C 39.816406 270.90625 40.105469 271.097656 40.433594 271.234375 C 40.761719 271.371094 41.105469 271.4375 41.460938 271.4375 L 64.113281 271.4375 C 64.46875 271.4375 64.808594 271.371094 65.136719 271.234375 C 65.464844 271.097656 65.757812 270.90625 66.007812 270.652344 C 66.257812 270.402344 66.453125 270.113281 66.589844 269.785156 C 66.726562 269.457031 66.792969 269.113281 66.792969 268.757812 L 66.792969 235.972656 C 66.792969 235.050781 66.703125 234.140625 66.523438 233.238281 C 66.34375 232.339844 66.074219 231.460938 65.722656 230.613281 C 65.371094 229.761719 64.941406 228.957031 64.429688 228.191406 C 63.917969 227.425781 63.335938 226.71875 62.6875 226.070312 C 62.035156 225.417969 61.328125 224.839844 60.5625 224.328125 C 59.800781 223.816406 58.992188 223.382812 58.144531 223.03125 C 57.292969 222.679688 56.417969 222.414062 55.515625 222.234375 C 54.613281 222.054688 53.703125 221.964844 52.78125 221.960938 Z M 61.429688 266.078125 L 44.140625 266.078125 L 44.140625 235.972656 C 44.125 235.394531 44.167969 234.824219 44.269531 234.253906 C 44.371094 233.6875 44.523438 233.132812 44.734375 232.597656 C 44.945312 232.058594 45.207031 231.550781 45.519531 231.066406 C 45.835938 230.582031 46.191406 230.132812 46.59375 229.71875 C 46.996094 229.304688 47.4375 228.9375 47.914062 228.613281 C 48.390625 228.285156 48.894531 228.011719 49.425781 227.789062 C 49.957031 227.5625 50.507812 227.394531 51.074219 227.28125 C 51.636719 227.167969 52.207031 227.109375 52.785156 227.109375 C 53.363281 227.109375 53.933594 227.167969 54.5 227.28125 C 55.066406 227.394531 55.613281 227.5625 56.144531 227.789062 C 56.675781 228.011719 57.179688 228.285156 57.65625 228.613281 C 58.132812 228.9375 58.574219 229.304688 58.976562 229.71875 C 59.378906 230.132812 59.738281 230.582031 60.050781 231.066406 C 60.363281 231.550781 60.625 232.058594 60.835938 232.597656 C 61.046875 233.132812 61.203125 233.6875 61.300781 234.253906 C 61.402344 234.824219 61.445312 235.394531 61.429688 235.972656 Z M 61.429688 266.078125 " fill-opacity="1" fill-rule="nonzero"/><path fill="#d9b752" d="M 164.261719 206.179688 L 133.988281 206.179688 C 133.632812 206.179688 133.292969 206.246094 132.964844 206.382812 C 132.636719 206.519531 132.34375 206.710938 132.09375 206.964844 C 131.84375 207.214844 131.648438 207.503906 131.511719 207.832031 C 131.375 208.160156 131.308594 208.503906 131.308594 208.859375 C 131.308594 209.214844 131.375 209.554688 131.511719 209.886719 C 131.648438 210.214844 131.84375 210.503906 132.09375 210.753906 C 132.34375 211.007812 132.636719 211.199219 132.964844 211.335938 C 133.292969 211.472656 133.632812 211.539062 133.988281 211.539062 L 164.261719 211.539062 C 164.617188 211.539062 164.957031 211.472656 165.285156 211.335938 C 165.613281 211.199219 165.90625 211.007812 166.15625 210.753906 C 166.40625 210.503906 166.601562 210.214844 166.738281 209.886719 C 166.875 209.554688 166.941406 209.214844 166.941406 208.859375 C 166.941406 208.503906 166.875 208.160156 166.738281 207.832031 C 166.601562 207.503906 166.40625 207.214844 166.15625 206.964844 C 165.90625 206.710938 165.613281 206.519531 165.285156 206.382812 C 164.957031 206.246094 164.617188 206.179688 164.261719 206.179688 Z M 164.261719 206.179688 " fill-opacity="1" fill-rule="nonzero"/><path fill="#d9b752" d="M 131.796875 135.136719 L 131.796875 157.988281 C 131.796875 158.34375 131.863281 158.6875 132 159.015625 C 132.136719 159.34375 132.332031 159.632812 132.582031 159.882812 C 132.832031 160.136719 133.121094 160.328125 133.453125 160.464844 C 133.78125 160.601562 134.121094 160.667969 134.476562 160.667969 L 163.769531 160.667969 C 164.125 160.667969 164.464844 160.601562 164.792969 160.464844 C 165.121094 160.328125 165.410156 160.136719 165.664062 159.882812 C 165.914062 159.632812 166.109375 159.34375 166.246094 159.015625 C 166.378906 158.6875 166.449219 158.34375 166.449219 157.988281 L 166.449219 135.136719 C 166.4375 134.578125 166.402344 134.015625 166.335938 133.460938 C 166.273438 132.902344 166.183594 132.347656 166.0625 131.800781 C 165.945312 131.25 165.800781 130.710938 165.632812 130.175781 C 165.460938 129.640625 165.265625 129.117188 165.042969 128.601562 C 164.820312 128.085938 164.574219 127.582031 164.304688 127.089844 C 164.035156 126.597656 163.742188 126.121094 163.425781 125.65625 C 163.105469 125.195312 162.769531 124.746094 162.40625 124.316406 C 162.046875 123.886719 161.667969 123.476562 161.265625 123.082031 C 160.867188 122.6875 160.449219 122.316406 160.011719 121.964844 C 159.574219 121.609375 159.125 121.28125 158.65625 120.972656 C 158.1875 120.664062 157.703125 120.378906 157.207031 120.117188 C 156.710938 119.851562 156.203125 119.617188 155.683594 119.402344 C 155.164062 119.191406 154.636719 119.003906 154.097656 118.84375 C 153.558594 118.683594 153.015625 118.546875 152.464844 118.4375 C 151.914062 118.332031 151.359375 118.25 150.800781 118.195312 C 150.242188 118.140625 149.683594 118.113281 149.121094 118.113281 C 148.5625 118.113281 148 118.140625 147.441406 118.195312 C 146.882812 118.25 146.328125 118.332031 145.78125 118.4375 C 145.230469 118.546875 144.683594 118.683594 144.148438 118.84375 C 143.609375 119.003906 143.082031 119.191406 142.5625 119.402344 C 142.042969 119.617188 141.535156 119.851562 141.039062 120.117188 C 140.542969 120.378906 140.058594 120.664062 139.589844 120.972656 C 139.121094 121.28125 138.667969 121.609375 138.234375 121.964844 C 137.796875 122.316406 137.378906 122.6875 136.976562 123.082031 C 136.578125 123.476562 136.195312 123.886719 135.835938 124.316406 C 135.476562 124.746094 135.136719 125.195312 134.820312 125.65625 C 134.503906 126.121094 134.210938 126.597656 133.941406 127.089844 C 133.667969 127.582031 133.421875 128.085938 133.203125 128.601562 C 132.980469 129.117188 132.785156 129.640625 132.613281 130.175781 C 132.441406 130.710938 132.300781 131.25 132.179688 131.800781 C 132.0625 132.347656 131.972656 132.902344 131.90625 133.460938 C 131.84375 134.015625 131.804688 134.578125 131.796875 135.136719 Z M 161.085938 135.136719 L 161.085938 155.308594 L 137.15625 155.308594 L 137.15625 135.136719 C 137.175781 134.363281 137.265625 133.597656 137.429688 132.839844 C 137.597656 132.082031 137.832031 131.347656 138.140625 130.636719 C 138.449219 129.925781 138.820312 129.25 139.261719 128.609375 C 139.699219 127.972656 140.195312 127.382812 140.75 126.839844 C 141.304688 126.296875 141.90625 125.8125 142.554688 125.386719 C 143.199219 124.960938 143.882812 124.601562 144.601562 124.308594 C 145.320312 124.019531 146.058594 123.796875 146.820312 123.648438 C 147.578125 123.5 148.347656 123.421875 149.121094 123.421875 C 149.898438 123.421875 150.664062 123.5 151.425781 123.648438 C 152.1875 123.796875 152.925781 124.019531 153.644531 124.308594 C 154.359375 124.601562 155.042969 124.960938 155.691406 125.386719 C 156.339844 125.8125 156.941406 126.296875 157.496094 126.839844 C 158.046875 127.382812 158.542969 127.972656 158.984375 128.609375 C 159.421875 129.25 159.796875 129.925781 160.105469 130.636719 C 160.414062 131.347656 160.648438 132.082031 160.8125 132.839844 C 160.980469 133.597656 161.070312 134.363281 161.085938 135.136719 Z M 161.085938 135.136719 " fill-opacity="1" fill-rule="nonzero"/></svg>